<?xml version="1.0"?>
<svg xmlns="http://www.w3.org/2000/svg" xmlns:xlink="http://www.w3.org/1999/xlink" xmlns:svgjs="http://svgjs.com/svgjs" version="1.1" width="512" height="512" x="0" y="0" viewBox="0 0 432 432" style="enable-background:new 0 0 512 512" xml:space="preserve" class=""><g>
<g xmlns="http://www.w3.org/2000/svg">
	<g>
		<path d="M424,384h-24V56c0-13.2-10.8-24-24-24h-64c-13.2,0-24,10.8-24,24v328h-16V168c0-13.2-10.8-24-24-24h-64    c-13.2,0-24,10.8-24,24v216h-16V280c0-13.2-10.8-24-24-24H56c-13.2,0-24,10.8-24,24v104H8c-4.4,0-8,3.6-8,8c0,4.4,3.6,8,8,8h416    c4.4,0,8-3.6,8-8C432,387.6,428.4,384,424,384z M128,384H48V280c0-4.4,3.6-8,8-8h64c4.4,0,8,3.6,8,8V384z M256,384h-80V168    c0-4.4,3.6-8,8-8h64c4.4,0,8,3.6,8,8V384z M384,384h-80V56c0-4.4,3.6-8,8-8h64c4.4,0,8,3.6,8,8V384z" fill="#3c3c3c" data-original="#000000" style=""/>
	</g>
</g>
<g xmlns="http://www.w3.org/2000/svg">
</g>
<g xmlns="http://www.w3.org/2000/svg">
</g>
<g xmlns="http://www.w3.org/2000/svg">
</g>
<g xmlns="http://www.w3.org/2000/svg">
</g>
<g xmlns="http://www.w3.org/2000/svg">
</g>
<g xmlns="http://www.w3.org/2000/svg">
</g>
<g xmlns="http://www.w3.org/2000/svg">
</g>
<g xmlns="http://www.w3.org/2000/svg">
</g>
<g xmlns="http://www.w3.org/2000/svg">
</g>
<g xmlns="http://www.w3.org/2000/svg">
</g>
<g xmlns="http://www.w3.org/2000/svg">
</g>
<g xmlns="http://www.w3.org/2000/svg">
</g>
<g xmlns="http://www.w3.org/2000/svg">
</g>
<g xmlns="http://www.w3.org/2000/svg">
</g>
<g xmlns="http://www.w3.org/2000/svg">
</g>
</g></svg>
